<?xml version="1.0" encoding="UTF-8"?>
<!DOCTYPE svg PUBLIC "-//W3C//DTD SVG 1.1//EN" "http://www.w3.org/Graphics/SVG/1.1/DTD/svg11.dtd">
<svg xmlns="http://www.w3.org/2000/svg" version="1.1" width="24px" height="24px" style="shape-rendering:geometricPrecision; text-rendering:geometricPrecision; image-rendering:optimizeQuality; fill-rule:evenodd; clip-rule:evenodd" xmlns:xlink="http://www.w3.org/1999/xlink">
<g><path style="opacity:0.92" fill="#330910" d="M 6.5,-0.5 C 9.83333,-0.5 13.1667,-0.5 16.5,-0.5C 17.6935,0.271873 18.6935,1.27187 19.5,2.5C 14.1667,2.5 8.83333,2.5 3.5,2.5C 4.30646,1.27187 5.30646,0.271873 6.5,-0.5 Z"/></g>
<g><path style="opacity:0.856" fill="#43080e" d="M 3.5,2.5 C 8.83333,2.5 14.1667,2.5 19.5,2.5C 17.0521,3.47307 14.3854,3.8064 11.5,3.5C 10.1667,4.16667 8.83333,4.83333 7.5,5.5C 5.26465,5.79472 3.26465,5.46138 1.5,4.5C 1.83333,3.5 2.5,2.83333 3.5,2.5 Z"/></g>
<g><path style="opacity:0.936" fill="#460a10" d="M 19.5,2.5 C 20.8333,3.16667 21.8333,4.16667 22.5,5.5C 20.1667,5.5 17.8333,5.5 15.5,5.5C 14.0048,5.01131 12.6715,4.34464 11.5,3.5C 14.3854,3.8064 17.0521,3.47307 19.5,2.5 Z"/></g>
<g><path style="opacity:0.998" fill="#500509" d="M 1.5,4.5 C 3.26465,5.46138 5.26465,5.79472 7.5,5.5C 7.5,6.16667 7.5,6.83333 7.5,7.5C 4.83333,7.5 2.16667,7.5 -0.5,7.5C -0.5,7.16667 -0.5,6.83333 -0.5,6.5C 0.166667,5.83333 0.833333,5.16667 1.5,4.5 Z"/></g>
<g><path style="opacity:1" fill="#80484a" d="M 11.5,3.5 C 12.6715,4.34464 14.0048,5.01131 15.5,5.5C 15.5,6.16667 15.5,6.83333 15.5,7.5C 14.6618,7.84171 14.3284,8.50838 14.5,9.5C 14.5,10.1667 14.5,10.8333 14.5,11.5C 14.1667,11.5 13.8333,11.5 13.5,11.5C 13.5,10.1667 13.5,8.83333 13.5,7.5C 12.1667,7.5 10.8333,7.5 9.5,7.5C 9.5,8.83333 9.5,10.1667 9.5,11.5C 9.16667,11.5 8.83333,11.5 8.5,11.5C 8.5,10.8333 8.5,10.1667 8.5,9.5C 8.16667,8.83333 7.83333,8.16667 7.5,7.5C 7.5,6.83333 7.5,6.16667 7.5,5.5C 8.83333,4.83333 10.1667,4.16667 11.5,3.5 Z"/></g>
<g><path style="opacity:0.998" fill="#510509" d="M 15.5,5.5 C 17.8333,5.5 20.1667,5.5 22.5,5.5C 22.5,6.16667 22.8333,6.5 23.5,6.5C 23.5,6.83333 23.5,7.16667 23.5,7.5C 20.8333,7.5 18.1667,7.5 15.5,7.5C 15.5,6.83333 15.5,6.16667 15.5,5.5 Z"/></g>
<g><path style="opacity:0.964" fill="#5b0406" d="M -0.5,7.5 C 2.16667,7.5 4.83333,7.5 7.5,7.5C 7.83333,8.16667 8.16667,8.83333 8.5,9.5C 5.5,9.5 2.5,9.5 -0.5,9.5C -0.5,8.83333 -0.5,8.16667 -0.5,7.5 Z"/></g>
<g><path style="opacity:0.964" fill="#5b0507" d="M 15.5,7.5 C 18.1667,7.5 20.8333,7.5 23.5,7.5C 23.5,8.16667 23.5,8.83333 23.5,9.5C 20.5,9.5 17.5,9.5 14.5,9.5C 14.3284,8.50838 14.6618,7.84171 15.5,7.5 Z"/></g>
<g><path style="opacity:0.994" fill="#680305" d="M -0.5,9.5 C 2.5,9.5 5.5,9.5 8.5,9.5C 8.5,10.1667 8.5,10.8333 8.5,11.5C 5.5,11.5 2.5,11.5 -0.5,11.5C -0.5,10.8333 -0.5,10.1667 -0.5,9.5 Z"/></g>
<g><path style="opacity:1" fill="#6b0d10" d="M 13.5,11.5 C 12.8485,12.0906 12.1818,12.7573 11.5,13.5C 10.8182,12.7573 10.1515,12.0906 9.5,11.5C 9.5,10.1667 9.5,8.83333 9.5,7.5C 10.8333,7.5 12.1667,7.5 13.5,7.5C 13.5,8.83333 13.5,10.1667 13.5,11.5 Z"/></g>
<g><path style="opacity:0.995" fill="#680305" d="M 14.5,9.5 C 17.5,9.5 20.5,9.5 23.5,9.5C 23.5,10.1667 23.5,10.8333 23.5,11.5C 20.5,11.5 17.5,11.5 14.5,11.5C 14.5,10.8333 14.5,10.1667 14.5,9.5 Z"/></g>
<g><path style="opacity:0.995" fill="#78080b" d="M 13.5,11.5 C 13.8333,11.5 14.1667,11.5 14.5,11.5C 17.5,11.5 20.5,11.5 23.5,11.5C 23.5,12.1667 23.5,12.8333 23.5,13.5C 21.5,13.5 19.5,13.5 17.5,13.5C 16.8333,13.5 16.1667,13.5 15.5,13.5C 14.8333,12.8333 14.1667,12.1667 13.5,11.5 Z"/></g>
<g><path style="opacity:1" fill="#830d0e" d="M -0.5,11.5 C 2.5,11.5 5.5,11.5 8.5,11.5C 8.83333,11.5 9.16667,11.5 9.5,11.5C 9.08247,12.2216 8.4158,12.7216 7.5,13C 8.94227,13.3768 9.94227,14.2101 10.5,15.5C 10.5,16.8333 9.83333,17.5 8.5,17.5C 7.5,16.5 6.5,15.5 5.5,14.5C 3.73535,13.5386 1.73535,13.2053 -0.5,13.5C -0.5,12.8333 -0.5,12.1667 -0.5,11.5 Z"/></g>
<g><path style="opacity:1" fill="#bd7b7b" d="M 9.5,11.5 C 10.1515,12.0906 10.8182,12.7573 11.5,13.5C 12.1818,12.7573 12.8485,12.0906 13.5,11.5C 14.1667,12.1667 14.8333,12.8333 15.5,13.5C 13.8333,14.1667 12.1667,14.8333 10.5,15.5C 9.94227,14.2101 8.94227,13.3768 7.5,13C 8.4158,12.7216 9.08247,12.2216 9.5,11.5 Z"/></g>
<g><path style="opacity:0.922" fill="#95070a" d="M -0.5,13.5 C 1.73535,13.2053 3.73535,13.5386 5.5,14.5C 5.5,15.5 5.5,16.5 5.5,17.5C 3.83333,17.5 2.16667,17.5 0.5,17.5C 0.5,16.8333 0.166667,16.5 -0.5,16.5C -0.5,15.5 -0.5,14.5 -0.5,13.5 Z"/></g>
<g><path style="opacity:0.921" fill="#95070a" d="M 17.5,13.5 C 19.5,13.5 21.5,13.5 23.5,13.5C 23.5,14.5 23.5,15.5 23.5,16.5C 22.8333,16.5 22.5,16.8333 22.5,17.5C 20.8333,17.5 19.1667,17.5 17.5,17.5C 17.5,16.1667 17.5,14.8333 17.5,13.5 Z"/></g>
<g><path style="opacity:1" fill="#c46364" d="M 5.5,14.5 C 6.5,15.5 7.5,16.5 8.5,17.5C 7.79105,18.404 6.79105,18.7373 5.5,18.5C 5.5,18.1667 5.5,17.8333 5.5,17.5C 5.5,16.5 5.5,15.5 5.5,14.5 Z"/></g>
<g><path style="opacity:1" fill="#b23937" d="M 15.5,13.5 C 16.1667,13.5 16.8333,13.5 17.5,13.5C 17.5,14.8333 17.5,16.1667 17.5,17.5C 15.9522,18.7943 13.9522,19.4609 11.5,19.5C 9.30352,19.4954 7.30352,19.162 5.5,18.5C 6.79105,18.7373 7.79105,18.404 8.5,17.5C 9.83333,17.5 10.5,16.8333 10.5,15.5C 12.1667,14.8333 13.8333,14.1667 15.5,13.5 Z"/></g>
<g><path style="opacity:0.936" fill="#b30708" d="M 0.5,17.5 C 2.16667,17.5 3.83333,17.5 5.5,17.5C 5.5,17.8333 5.5,18.1667 5.5,18.5C 7.30352,19.162 9.30352,19.4954 11.5,19.5C 13.9522,19.4609 15.9522,18.7943 17.5,17.5C 19.1667,17.5 20.8333,17.5 22.5,17.5C 21.5,19.1667 20.1667,20.5 18.5,21.5C 13.8333,21.5 9.16667,21.5 4.5,21.5C 2.83333,20.5 1.5,19.1667 0.5,17.5 Z"/></g>
<g><path style="opacity:0.841" fill="#c80606" d="M 4.5,21.5 C 9.16667,21.5 13.8333,21.5 18.5,21.5C 17.8333,22.1667 17.1667,22.8333 16.5,23.5C 13.1667,23.5 9.83333,23.5 6.5,23.5C 5.83333,22.8333 5.16667,22.1667 4.5,21.5 Z"/></g>
</svg>
